<?xml version="1.0" standalone="no"?>
<!DOCTYPE svg PUBLIC "-//W3C//DTD SVG 20010904//EN"
 "http://www.w3.org/TR/2001/REC-SVG-20010904/DTD/svg10.dtd">
<svg version="1.0" xmlns="http://www.w3.org/2000/svg"
 width="574.000000pt" height="574.000000pt" viewBox="0 0 574.000000 574.000000"
 preserveAspectRatio="xMidYMid meet">
<metadata>
Created by potrace 1.14, written by Peter Selinger 2001-2017
</metadata>
<g transform="translate(0.000000,574.000000) scale(0.100000,-0.100000)"
fill="#000000" stroke="none">
<path d="M2728 5735 c-1 -1 -38 -6 -81 -10 -43 -3 -88 -8 -100 -10 -169 -29
-212 -37 -217 -40 -3 -2 -21 -6 -40 -9 -77 -12 -311 -87 -441 -141 -237 -99
-519 -267 -689 -411 -290 -246 -497 -488 -669 -784 -182 -312 -317 -728 -356
-1090 -22 -211 -22 -570 0 -740 19 -147 26 -184 51 -300 69 -323 207 -649 390
-925 138 -206 197 -278 374 -455 58 -58 132 -128 165 -155 33 -28 62 -53 65
-56 23 -26 242 -174 355 -239 242 -140 604 -275 845 -316 14 -3 48 -9 75 -14
144 -27 256 -35 480 -35 188 0 302 7 413 26 31 5 73 12 92 15 85 13 293 69
414 111 183 64 354 144 528 248 96 57 148 93 273 188 206 155 450 417 605 647
227 338 395 767 446 1135 3 28 8 59 10 70 13 67 19 211 19 435 0 312 -3 344
-60 655 -10 51 -42 170 -72 260 -172 529 -496 994 -928 1336 -70 55 -194 145
-226 164 -10 6 -53 31 -96 56 -236 140 -524 257 -773 314 -118 27 -198 41
-280 50 -25 3 -61 8 -80 11 -37 6 -486 15 -492 9z"/>
</g>
</svg>
